<?xml version="1.0" encoding="UTF-8"?>
<svg id="Layer_1" xmlns="http://www.w3.org/2000/svg" version="1.1" viewBox="0 0 300 54.199">
  <!-- Generator: Adobe Illustrator 29.6.1, SVG Export Plug-In . SVG Version: 2.1.1 Build 9)  -->
  <defs>
    <style>
      .st0 {
        fill: #06152e;
      }

      .st1 {
        fill: #0057fc;
      }

      .st2 {
        fill: #14181f;
      }
    </style>
  </defs>
  <g>
    <path class="st0" d="M101.894,11.829l-11.1,30.265h-7.371l-11.1-30.265h6.503l8.325,24.065,8.282-24.065h6.46Z"/>
    <path class="st0" d="M108.225,40.945c-1.85-1.025-3.303-2.478-4.358-4.358-1.056-1.878-1.583-4.046-1.583-6.503s.541-4.624,1.626-6.504c1.084-1.878,2.565-3.331,4.445-4.358,1.878-1.026,3.974-1.539,6.287-1.539s4.407.513,6.287,1.539c1.878,1.026,3.36,2.479,4.444,4.358,1.084,1.88,1.626,4.048,1.626,6.504s-.557,4.625-1.67,6.503c-1.113,1.88-2.616,3.332-4.51,4.358-1.893,1.027-4.011,1.539-6.352,1.539-2.313,0-4.394-.513-6.243-1.539ZM117.568,36.392c.969-.535,1.741-1.337,2.32-2.406s.867-2.37.867-3.902c0-2.284-.6-4.039-1.8-5.269-1.199-1.228-2.666-1.843-4.401-1.843s-3.187.615-4.358,1.843c-1.17,1.229-1.756,2.985-1.756,5.269s.57,4.04,1.713,5.268c1.141,1.229,2.58,1.843,4.314,1.843,1.099,0,2.132-.267,3.1-.802Z"/>
    <path class="st0" d="M133.633,41.422c-1.561-.708-2.797-1.67-3.707-2.883-.91-1.214-1.409-2.559-1.496-4.032h6.114c.115.926.57,1.691,1.366,2.298.795.607,1.784.91,2.97.91,1.156,0,2.06-.231,2.71-.693.65-.462.976-1.055.976-1.778,0-.781-.398-1.366-1.192-1.756-.795-.39-2.06-.816-3.794-1.279-1.793-.434-3.26-.882-4.401-1.344-1.143-.462-2.125-1.17-2.949-2.125-.823-.954-1.236-2.24-1.236-3.859,0-1.329.383-2.543,1.149-3.642.765-1.099,1.864-1.966,3.295-2.602,1.431-.636,3.114-.954,5.051-.954,2.862,0,5.145.716,6.851,2.147,1.705,1.431,2.645,3.36,2.818,5.788h-5.81c-.087-.953-.485-1.713-1.192-2.276-.708-.564-1.655-.845-2.84-.845-1.099,0-1.945.202-2.537.606-.593.405-.888.969-.888,1.691,0,.809.405,1.424,1.214,1.843s2.066.845,3.772,1.279c1.735.433,3.165.882,4.293,1.344,1.127.463,2.103,1.178,2.927,2.147s1.25,2.248,1.279,3.837c0,1.387-.383,2.631-1.149,3.728-.766,1.099-1.865,1.959-3.295,2.58-1.431.622-3.1.932-5.008.932-1.967,0-3.729-.355-5.29-1.062Z"/>
    <path class="st0" d="M155.529,41.422c-1.561-.708-2.797-1.67-3.707-2.883-.91-1.214-1.409-2.559-1.496-4.032h6.114c.115.926.57,1.691,1.366,2.298.795.607,1.784.91,2.97.91,1.156,0,2.06-.231,2.71-.693.65-.462.976-1.055.976-1.778,0-.781-.398-1.366-1.192-1.756-.795-.39-2.06-.816-3.794-1.279-1.793-.434-3.26-.882-4.401-1.344-1.143-.462-2.125-1.17-2.949-2.125-.823-.954-1.236-2.24-1.236-3.859,0-1.329.383-2.543,1.149-3.642.765-1.099,1.864-1.966,3.295-2.602,1.431-.636,3.114-.954,5.051-.954,2.862,0,5.145.716,6.851,2.147,1.705,1.431,2.645,3.36,2.818,5.788h-5.81c-.087-.953-.485-1.713-1.192-2.276-.708-.564-1.655-.845-2.84-.845-1.099,0-1.945.202-2.537.606-.593.405-.888.969-.888,1.691,0,.809.405,1.424,1.214,1.843s2.066.845,3.772,1.279c1.735.433,3.165.882,4.293,1.344,1.127.463,2.103,1.178,2.927,2.147s1.25,2.248,1.279,3.837c0,1.387-.383,2.631-1.149,3.728-.766,1.099-1.865,1.959-3.295,2.58-1.431.622-3.1.932-5.008.932-1.967,0-3.729-.355-5.29-1.062Z"/>
    <path class="st0" d="M192.493,13.694c2.413,1.243,4.277,3.013,5.593,5.311,1.316,2.299,1.973,4.965,1.973,8s-.658,5.688-1.973,7.957c-1.316,2.27-3.18,4.026-5.593,5.268-2.414,1.243-5.21,1.865-8.39,1.865h-10.58V11.829h10.58c3.18,0,5.976.622,8.39,1.865ZM191.257,34.332c1.735-1.734,2.602-4.176,2.602-7.328s-.867-5.615-2.602-7.393c-1.734-1.778-4.191-2.667-7.371-2.667h-4.293v19.989h4.293c3.18,0,5.637-.867,7.371-2.602Z"/>
    <path class="st0" d="M203.29,14.192c-.709-.679-1.063-1.524-1.063-2.536s.354-1.857,1.063-2.537c.708-.679,1.597-1.019,2.666-1.019s1.958.34,2.666,1.019c.709.68,1.063,1.525,1.063,2.537s-.354,1.857-1.063,2.536c-.708.68-1.597,1.019-2.666,1.019s-1.958-.34-2.666-1.019ZM208.947,18.073v24.021h-6.07v-24.021h6.07Z"/>
    <path class="st0" d="M227.332,18.745c1.36.708,2.429,1.626,3.209,2.754v-3.426h6.114v24.195c0,2.226-.449,4.213-1.344,5.962-.897,1.749-2.24,3.136-4.032,4.162-1.794,1.026-3.961,1.539-6.504,1.539-3.412,0-6.208-.795-8.39-2.385-2.184-1.59-3.419-3.758-3.708-6.504h6.028c.318,1.099,1.004,1.973,2.06,2.624,1.054.65,2.333.975,3.837.975,1.763,0,3.194-.528,4.293-1.583,1.098-1.056,1.647-2.652,1.647-4.792v-3.728c-.78,1.127-1.857,2.066-3.23,2.818s-2.941,1.127-4.705,1.127c-2.023,0-3.873-.52-5.55-1.561-1.677-1.041-2.999-2.507-3.967-4.401-.969-1.893-1.453-4.068-1.453-6.525,0-2.428.484-4.581,1.453-6.46.968-1.879,2.282-3.324,3.945-4.336,1.662-1.011,3.519-1.518,5.571-1.518,1.792,0,3.368.355,4.726,1.062ZM229.674,26.29c-.579-1.055-1.36-1.865-2.342-2.428-.983-.564-2.037-.845-3.165-.845s-2.167.274-3.121.823c-.954.55-1.727,1.352-2.32,2.407-.593,1.056-.889,2.305-.889,3.75s.296,2.71.889,3.794c.593,1.084,1.373,1.915,2.341,2.493.969.578,2.002.867,3.1.867,1.128,0,2.182-.282,3.165-.845.983-.564,1.763-1.373,2.342-2.429.578-1.055.867-2.32.867-3.793s-.289-2.739-.867-3.794Z"/>
    <path class="st0" d="M241.272,14.192c-.709-.679-1.063-1.524-1.063-2.536s.354-1.857,1.063-2.537c.708-.679,1.597-1.019,2.666-1.019s1.958.34,2.666,1.019c.709.68,1.063,1.525,1.063,2.537s-.354,1.857-1.063,2.536c-.708.68-1.597,1.019-2.666,1.019s-1.958-.34-2.666-1.019ZM246.929,18.073v24.021h-6.07v-24.021h6.07Z"/>
    <path class="st0" d="M258.247,23.059v11.62c0,.81.195,1.395.585,1.756s1.048.541,1.973.541h2.817v5.117h-3.815c-5.116,0-7.675-2.485-7.675-7.458v-11.577h-2.861v-4.987h2.861v-5.94h6.114v5.94h5.376v4.987h-5.376Z"/>
    <path class="st0" d="M266.16,23.536c.968-1.879,2.282-3.324,3.945-4.336,1.662-1.011,3.519-1.518,5.571-1.518,1.792,0,3.36.362,4.705,1.084,1.344.723,2.421,1.633,3.23,2.732v-3.426h6.114v24.021h-6.114v-3.512c-.78,1.127-1.857,2.06-3.23,2.797s-2.956,1.105-4.747,1.105c-2.025,0-3.867-.52-5.529-1.561-1.663-1.041-2.978-2.507-3.945-4.401-.969-1.893-1.453-4.068-1.453-6.525,0-2.428.484-4.581,1.453-6.46ZM282.745,26.29c-.579-1.055-1.36-1.865-2.342-2.428-.983-.564-2.037-.845-3.165-.845s-2.167.274-3.121.823c-.954.55-1.727,1.352-2.32,2.407-.593,1.056-.889,2.305-.889,3.75s.296,2.71.889,3.794c.593,1.084,1.373,1.915,2.341,2.493.969.578,2.002.867,3.1.867,1.128,0,2.182-.282,3.165-.845.983-.564,1.763-1.373,2.342-2.429.578-1.055.867-2.32.867-3.793s-.289-2.739-.867-3.794Z"/>
    <path class="st0" d="M300,10.008v32.086h-6.07V10.008h6.07Z"/>
  </g>
  <g>
    <polygon class="st2" points="47.708 6.489 23.857 47.71 71.558 47.71 57.377 23.201 47.708 6.489"/>
    <polygon class="st0" points="47.708 6.489 23.857 47.71 71.558 47.71 57.377 23.201 47.708 6.489"/>
    <polygon class="st1" points="23.85 47.71 47.7 6.489 0 6.489 23.85 47.71"/>
  </g>
</svg>