<?xml version="1.0" encoding="UTF-8"?>
<svg id="Layer_1" xmlns="http://www.w3.org/2000/svg" version="1.1" viewBox="0 0 300 127.683">
  <!-- Generator: Adobe Illustrator 29.6.1, SVG Export Plug-In . SVG Version: 2.1.1 Build 9)  -->
  <defs>
    <style>
      .st0 {
        isolation: isolate;
      }

      .st1 {
        fill: #06152e;
      }

      .st2 {
        fill: #0057fc;
      }

      .st3 {
        fill: #14181f;
      }
    </style>
  </defs>
  <g class="st0">
    <g class="st0">
      <path class="st1" d="M38.964,72.208l-14.626,39.879h-9.712L0,72.208h8.569l10.969,31.709,10.913-31.709h8.513Z"/>
      <path class="st1" d="M47.306,110.572c-2.438-1.351-4.352-3.266-5.742-5.741-1.391-2.477-2.085-5.332-2.085-8.57s.713-6.093,2.142-8.57c1.429-2.475,3.38-4.39,5.856-5.741,2.475-1.353,5.237-2.029,8.284-2.029s5.808.676,8.284,2.029c2.475,1.351,4.428,3.266,5.855,5.741,1.429,2.477,2.143,5.332,2.143,8.57s-.734,6.093-2.2,8.57c-1.467,2.475-3.447,4.39-5.942,5.741-2.495,1.353-5.284,2.029-8.37,2.029-3.048,0-5.79-.676-8.227-2.029ZM59.618,104.575c1.276-.705,2.295-1.761,3.057-3.172.762-1.409,1.143-3.122,1.143-5.141,0-3.009-.791-5.322-2.371-6.942-1.58-1.618-3.513-2.427-5.799-2.427s-4.199.809-5.742,2.427c-1.542,1.62-2.313,3.933-2.313,6.942s.751,5.322,2.257,6.942c1.503,1.618,3.399,2.427,5.684,2.427,1.448,0,2.809-.351,4.085-1.056Z"/>
      <path class="st1" d="M80.785,111.202c-2.057-.935-3.685-2.2-4.885-3.8s-1.857-3.372-1.972-5.314h8.056c.151,1.219.751,2.23,1.799,3.029,1.047.799,2.351,1.2,3.914,1.2,1.523,0,2.714-.305,3.571-.915.857-.608,1.286-1.389,1.286-2.341,0-1.028-.524-1.799-1.571-2.313-1.048-.514-2.714-1.076-5-1.686-2.362-.572-4.295-1.162-5.799-1.771-1.505-.61-2.8-1.542-3.886-2.8-1.085-1.257-1.628-2.951-1.628-5.085,0-1.752.504-3.352,1.514-4.798,1.008-1.447,2.456-2.59,4.342-3.429,1.885-.837,4.104-1.255,6.655-1.255,3.771,0,6.779.943,9.028,2.828,2.247,1.885,3.485,4.428,3.713,7.628h-7.656c-.115-1.257-.639-2.258-1.571-3.001-.934-.741-2.181-1.114-3.742-1.114-1.448,0-2.563.267-3.343.801-.781.534-1.171,1.275-1.171,2.228,0,1.066.533,1.877,1.599,2.427,1.066.554,2.723,1.116,4.971,1.686,2.286.572,4.171,1.164,5.656,1.771,1.486.61,2.771,1.552,3.857,2.828,1.086,1.277,1.647,2.963,1.686,5.057,0,1.827-.505,3.465-1.514,4.914-1.009,1.447-2.457,2.58-4.342,3.399-1.885.817-4.085,1.227-6.599,1.227-2.591,0-4.914-.466-6.97-1.399Z"/>
      <path class="st1" d="M109.637,111.202c-2.057-.935-3.685-2.2-4.885-3.8s-1.857-3.372-1.972-5.314h8.056c.151,1.219.751,2.23,1.799,3.029,1.047.799,2.351,1.2,3.914,1.2,1.523,0,2.714-.305,3.571-.915.857-.608,1.286-1.389,1.286-2.341,0-1.028-.524-1.799-1.571-2.313-1.048-.514-2.714-1.076-5-1.686-2.362-.572-4.295-1.162-5.799-1.771-1.505-.61-2.8-1.542-3.886-2.8-1.085-1.257-1.628-2.951-1.628-5.085,0-1.752.504-3.352,1.514-4.798,1.008-1.447,2.456-2.59,4.342-3.429,1.885-.837,4.104-1.255,6.655-1.255,3.771,0,6.779.943,9.028,2.828,2.247,1.885,3.485,4.428,3.713,7.628h-7.656c-.115-1.257-.639-2.258-1.571-3.001-.934-.741-2.181-1.114-3.742-1.114-1.448,0-2.563.267-3.343.801-.781.534-1.171,1.275-1.171,2.228,0,1.066.533,1.877,1.599,2.427,1.066.554,2.723,1.116,4.971,1.686,2.286.572,4.171,1.164,5.656,1.771,1.486.61,2.771,1.552,3.857,2.828,1.086,1.277,1.647,2.963,1.686,5.057,0,1.827-.505,3.465-1.514,4.914-1.009,1.447-2.457,2.58-4.342,3.399-1.885.817-4.085,1.227-6.599,1.227-2.591,0-4.914-.466-6.97-1.399Z"/>
      <path class="st1" d="M158.343,74.665c3.179,1.638,5.636,3.971,7.37,6.998,1.732,3.029,2.598,6.542,2.598,10.541s-.867,7.494-2.598,10.483c-1.734,2.991-4.191,5.304-7.37,6.942-3.181,1.638-6.866,2.457-11.055,2.457h-13.94v-39.879h13.94c4.19,0,7.874.819,11.055,2.457ZM156.714,101.861c2.286-2.286,3.428-5.504,3.428-9.656s-1.143-7.399-3.428-9.74c-2.285-2.343-5.523-3.515-9.712-3.515h-5.656v26.339h5.656c4.19,0,7.428-1.142,9.712-3.427Z"/>
      <path class="st1" d="M172.567,75.323c-.935-.895-1.399-2.009-1.399-3.344s.464-2.447,1.399-3.342c.933-.895,2.104-1.343,3.513-1.343s2.58.448,3.515,1.343c.933.895,1.399,2.009,1.399,3.342s-.466,2.449-1.399,3.344c-.935.895-2.106,1.341-3.515,1.341s-2.58-.446-3.513-1.341ZM180.024,80.436v31.651h-7.998v-31.651h7.998Z"/>
      <path class="st1" d="M204.248,81.321c1.789.935,3.198,2.142,4.226,3.629v-4.513h8.056v31.88c0,2.931-.59,5.549-1.771,7.855-1.18,2.303-2.951,4.133-5.312,5.486-2.363,1.351-5.219,2.027-8.57,2.027-4.495,0-8.18-1.046-11.055-3.142-2.875-2.094-4.505-4.952-4.884-8.568h7.941c.418,1.447,1.323,2.598,2.714,3.455,1.389.857,3.075,1.285,5.055,1.285,2.323,0,4.208-.695,5.657-2.084,1.447-1.391,2.17-3.495,2.17-6.313v-4.914c-1.028,1.485-2.447,2.724-4.256,3.714-1.809.988-3.876,1.485-6.199,1.485-2.666,0-5.103-.685-7.313-2.056-2.208-1.371-3.951-3.304-5.227-5.799-1.277-2.495-1.915-5.362-1.915-8.598,0-3.2.638-6.038,1.915-8.515,1.275-2.475,3.009-4.38,5.199-5.713s4.637-1.999,7.341-1.999c2.361,0,4.438.466,6.229,1.399ZM207.333,91.262c-.763-1.389-1.791-2.457-3.085-3.2-1.295-.741-2.686-1.114-4.171-1.114s-2.857.363-4.115,1.086-2.276,1.781-3.057,3.17c-.781,1.391-1.17,3.039-1.17,4.944s.389,3.571,1.17,4.998c.781,1.429,1.809,2.525,3.087,3.286,1.275.763,2.636,1.142,4.085,1.142,1.485,0,2.875-.371,4.171-1.114,1.293-.741,2.321-1.807,3.085-3.198.761-1.391,1.142-3.057,1.142-5s-.381-3.609-1.142-5Z"/>
      <path class="st1" d="M222.616,75.323c-.935-.895-1.401-2.009-1.401-3.344s.466-2.447,1.401-3.342c.933-.895,2.102-1.343,3.513-1.343s2.58.448,3.513,1.343,1.401,2.009,1.401,3.342-.468,2.449-1.401,3.344-2.104,1.341-3.513,1.341-2.58-.446-3.513-1.341ZM230.071,80.436v31.651h-7.998v-31.651h7.998Z"/>
      <path class="st1" d="M244.983,87.006v15.311c0,1.066.257,1.839.771,2.313.514.478,1.379.715,2.598.715h3.714v6.741h-5.027c-6.741,0-10.113-3.276-10.113-9.828v-15.254h-3.77v-6.57h3.77v-7.827h8.056v7.827h7.084v6.57h-7.084Z"/>
      <path class="st1" d="M255.409,87.633c1.275-2.475,3.009-4.38,5.199-5.713s4.637-1.999,7.341-1.999c2.361,0,4.43.476,6.199,1.427,1.771.952,3.19,2.154,4.256,3.601v-4.513h8.056v31.651h-8.056v-4.627c-1.028,1.485-2.447,2.712-4.256,3.684-1.809.97-3.894,1.457-6.255,1.457-2.666,0-5.095-.685-7.285-2.056s-3.923-3.304-5.199-5.799c-1.277-2.495-1.915-5.362-1.915-8.598,0-3.2.638-6.038,1.915-8.515ZM277.262,91.262c-.763-1.389-1.791-2.457-3.085-3.2-1.295-.741-2.686-1.114-4.171-1.114s-2.857.363-4.115,1.086-2.276,1.781-3.057,3.17c-.781,1.391-1.17,3.039-1.17,4.944s.389,3.571,1.17,4.998c.781,1.429,1.809,2.525,3.087,3.286,1.275.763,2.636,1.142,4.085,1.142,1.485,0,2.875-.371,4.171-1.114,1.293-.741,2.321-1.807,3.085-3.198.761-1.391,1.142-3.057,1.142-5s-.381-3.609-1.142-5Z"/>
      <path class="st1" d="M300,69.809v42.278h-7.998v-42.278h7.998Z"/>
    </g>
  </g>
  <g>
    <polygon class="st3" points="167.288 0 135.863 54.315 198.715 54.315 180.029 22.021 167.288 0"/>
    <polygon class="st1" points="167.288 0 135.863 54.315 198.715 54.315 180.029 22.021 167.288 0"/>
    <polygon class="st2" points="135.853 54.315 167.278 0 104.426 0 135.853 54.315"/>
  </g>
</svg>