<?xml version="1.0" encoding="UTF-8"?>
<svg id="Layer_1" xmlns="http://www.w3.org/2000/svg" version="1.1" viewBox="0 0 286 50">
  <!-- Generator: Adobe Illustrator 29.6.1, SVG Export Plug-In . SVG Version: 2.1.1 Build 9)  -->
  <defs>
    <style>
      .st0 {
        fill: #06152e;
      }

      .st1 {
        fill: #0057fc;
      }

      .st2 {
        fill: #14181f;
      }
    </style>
  </defs>
  <g>
    <path class="st0" d="M113.422,12.266l-9.67,26.365h-6.421l-9.67-26.365h5.666l7.252,20.963,7.214-20.963h5.628Z"/>
    <path class="st0" d="M118.937,37.63c-1.612-.893-2.877-2.158-3.796-3.796-.92-1.636-1.379-3.525-1.379-5.666s.472-4.028,1.416-5.666c.944-1.636,2.234-2.902,3.872-3.796,1.636-.894,3.462-1.341,5.477-1.341s3.839.448,5.477,1.341c1.636.894,2.927,2.16,3.872,3.796.944,1.638,1.416,3.526,1.416,5.666s-.486,4.029-1.454,5.666c-.97,1.638-2.278,2.903-3.928,3.796-1.65.894-3.494,1.341-5.534,1.341-2.015,0-3.827-.447-5.439-1.341ZM127.077,33.664c.843-.465,1.518-1.164,2.021-2.096s.755-2.065.755-3.399c0-1.99-.523-3.518-1.568-4.589-1.044-1.07-2.323-1.605-3.834-1.605s-2.776.536-3.796,1.605c-1.02,1.071-1.53,2.601-1.53,4.589s.496,3.52,1.492,4.589c.994,1.07,2.247,1.605,3.758,1.605.956,0,1.856-.232,2.701-.699Z"/>
    <path class="st0" d="M141.071,38.045c-1.36-.616-2.436-1.454-3.23-2.512s-1.228-2.229-1.303-3.513h5.326c.1.807.496,1.473,1.19,2.002.692.529,1.554.793,2.587.793,1.008,0,1.794-.201,2.361-.604.567-.402.85-.919.85-1.549,0-.68-.347-1.19-1.039-1.53-.693-.34-1.794-.711-3.305-1.114-1.562-.378-2.84-.768-3.834-1.171-.996-.402-1.851-1.02-2.569-1.851-.718-.831-1.077-1.951-1.077-3.362,0-1.157.333-2.215,1.001-3.173.666-.956,1.624-1.713,2.871-2.266,1.246-.554,2.713-.831,4.4-.831,2.493,0,4.481.623,5.968,1.87,1.485,1.246,2.304,2.927,2.455,5.043h-5.061c-.076-.831-.422-1.492-1.039-1.983-.618-.491-1.442-.737-2.474-.737-.956,0-1.694.175-2.21.529-.517.353-.774.844-.774,1.473,0,.704.352,1.24,1.058,1.605s1.8.737,3.286,1.114c1.511.378,2.757.768,3.739,1.171.982.403,1.832,1.027,2.55,1.87s1.089,1.959,1.114,3.343c0,1.209-.335,2.292-1.001,3.248-.668.958-1.624,1.706-2.871,2.247-1.246.541-2.701.812-4.363.812-1.713,0-3.248-.309-4.608-.925Z"/>
    <path class="st0" d="M160.145,38.045c-1.36-.616-2.436-1.454-3.23-2.512s-1.228-2.229-1.303-3.513h5.326c.1.807.496,1.473,1.19,2.002.692.529,1.554.793,2.587.793,1.008,0,1.794-.201,2.361-.604.567-.402.85-.919.85-1.549,0-.68-.347-1.19-1.039-1.53-.693-.34-1.794-.711-3.305-1.114-1.562-.378-2.84-.768-3.834-1.171-.996-.402-1.851-1.02-2.569-1.851-.718-.831-1.077-1.951-1.077-3.362,0-1.157.333-2.215,1.001-3.173.666-.956,1.624-1.713,2.871-2.266,1.246-.554,2.713-.831,4.4-.831,2.493,0,4.481.623,5.968,1.87,1.485,1.246,2.304,2.927,2.455,5.043h-5.061c-.076-.831-.422-1.492-1.039-1.983-.618-.491-1.442-.737-2.474-.737-.956,0-1.694.175-2.21.529-.517.353-.774.844-.774,1.473,0,.704.352,1.24,1.058,1.605s1.8.737,3.286,1.114c1.511.378,2.757.768,3.739,1.171.982.403,1.832,1.027,2.55,1.87.718.843,1.089,1.959,1.114,3.343,0,1.209-.335,2.292-1.001,3.248-.668.958-1.624,1.706-2.871,2.247-1.246.541-2.701.812-4.363.812-1.713,0-3.248-.309-4.608-.925Z"/>
    <path class="st0" d="M192.346,13.89c2.102,1.083,3.726,2.625,4.873,4.627s1.719,4.325,1.719,6.969-.573,4.955-1.719,6.931c-1.147,1.978-2.771,3.507-4.873,4.589-2.103,1.083-4.539,1.624-7.309,1.624h-9.216V12.266h9.216c2.769,0,5.206.541,7.309,1.624ZM191.269,31.87c1.511-1.511,2.266-3.638,2.266-6.383s-.755-4.891-2.266-6.44-3.652-2.323-6.421-2.323h-3.739v17.413h3.739c2.769,0,4.91-.755,6.421-2.266Z"/>
    <path class="st0" d="M201.752,14.325c-.618-.591-.927-1.327-.927-2.21s.309-1.617.927-2.21c.616-.591,1.391-.888,2.323-.888s1.706.297,2.323.888c.618.592.927,1.329.927,2.21s-.309,1.617-.927,2.21c-.616.592-1.391.888-2.323.888s-1.706-.295-2.323-.888ZM206.68,17.705v20.926h-5.288v-20.926h5.288Z"/>
    <path class="st0" d="M222.695,18.291c1.184.618,2.115,1.416,2.795,2.399v-2.984h5.326v21.077c0,1.94-.391,3.671-1.171,5.194-.781,1.523-1.951,2.732-3.513,3.626s-3.451,1.341-5.666,1.341c-2.972,0-5.408-.693-7.309-2.077-1.902-1.385-2.979-3.274-3.231-5.666h5.252c.277.956.874,1.719,1.794,2.285.919.567,2.033.85,3.343.85,1.537,0,2.782-.46,3.739-1.379.956-.92,1.434-2.311,1.434-4.174v-3.248c-.68.982-1.617,1.8-2.814,2.455s-2.562.982-4.098.982c-1.763,0-3.374-.453-4.835-1.36-1.461-.907-2.613-2.184-3.456-3.834-.844-1.648-1.265-3.544-1.265-5.685,0-2.115.421-3.99,1.265-5.628.843-1.636,1.988-2.895,3.437-3.777,1.447-.881,3.065-1.322,4.854-1.322,1.561,0,2.934.309,4.117.925h.001ZM224.736,24.863c-.505-.919-1.184-1.624-2.041-2.115s-1.774-.737-2.757-.737-1.887.239-2.72.718c-.831.479-1.504,1.178-2.021,2.096-.517.92-.774,2.009-.774,3.267s.258,2.361.774,3.305c.517.944,1.197,1.669,2.04,2.172.844.505,1.744.755,2.701.755.983,0,1.901-.246,2.757-.737.857-.491,1.537-1.197,2.041-2.115.503-.919.755-2.021.755-3.305s-.252-2.386-.755-3.305h0Z"/>
    <path class="st0" d="M234.839,14.325c-.618-.591-.927-1.327-.927-2.21s.309-1.617.927-2.21c.616-.591,1.391-.888,2.323-.888s1.706.297,2.323.888c.618.592.927,1.329.927,2.21s-.309,1.617-.927,2.21c-.616.592-1.391.888-2.323.888s-1.706-.295-2.323-.888ZM239.767,17.705v20.926h-5.288v-20.926h5.288Z"/>
    <path class="st0" d="M249.627,22.049v10.123c0,.706.17,1.215.51,1.53s.913.472,1.719.472h2.454v4.457h-3.324c-4.457,0-6.686-2.165-6.686-6.497v-10.085h-2.493v-4.344h2.493v-5.175h5.326v5.175h4.684v4.344h-4.684.001Z"/>
    <path class="st0" d="M256.52,22.464c.843-1.636,1.988-2.895,3.437-3.777,1.447-.881,3.065-1.322,4.854-1.322,1.561,0,2.927.316,4.098.944,1.171.63,2.108,1.423,2.814,2.38v-2.984h5.326v20.926h-5.326v-3.06c-.68.982-1.617,1.794-2.814,2.436s-2.575.963-4.135.963c-1.764,0-3.368-.453-4.816-1.36-1.449-.907-2.594-2.184-3.437-3.834-.844-1.648-1.265-3.544-1.265-5.685,0-2.115.421-3.99,1.265-5.628h-.001ZM270.968,24.863c-.505-.919-1.184-1.624-2.041-2.115s-1.774-.737-2.757-.737-1.887.239-2.72.718c-.831.479-1.504,1.178-2.021,2.096-.517.92-.774,2.009-.774,3.267s.258,2.361.774,3.305c.517.944,1.197,1.669,2.04,2.172.844.505,1.744.755,2.701.755.983,0,1.901-.246,2.757-.737.857-.491,1.537-1.197,2.041-2.115.503-.919.755-2.021.755-3.305s-.252-2.386-.755-3.305h0Z"/>
    <path class="st0" d="M286,10.68v27.951h-5.288V10.68h5.288Z"/>
  </g>
  <g>
    <polygon class="st2" points="57.871 0 28.941 50 86.802 50 69.6 20.27 57.871 0"/>
    <polygon class="st1" points="28.932 50 57.861 0 0 0 28.932 50"/>
  </g>
</svg>